{
  "accessors": [
    {
      "bufferView": 2,
      "componentType": 5126,
      "count": 559,
      "max": [
        40.76195526123047,
        8.429046630859375,
        -86.90371704101563
      ],
      "min": [
        -35.96061325073242,
        0.03585800155997276,
        -163.62628173828125
      ],
      "type": "VEC3"
    },
    {
      "bufferView": 2,
      "byteOffset": 6708,
      "componentType": 5126,
      "count": 559,
      "max": [
        1.0,
        1.0,
        1.0
      ],
      "min": [
        -1.0,
        -1.0,
        -1.0
      ],
      "type": "VEC3"
    },
    {
      "bufferView": 3,
      "componentType": 5126,
      "count": 559,
      "max": [
        1.0,
        0.05445462837815285,
        1.0,
        -1.0
      ],
      "min": [
        -1.0,
        -0.054454632103443146,
        -1.0,
        -1.0
      ],
      "type": "VEC4"
    },
    {
      "bufferView": 1,
      "componentType": 5126,
      "count": 559,
      "max": [
        1.0,
        1.0
      ],
      "min": [
        0.0,
        0.0
      ],
      "type": "VEC2"
    },
    {
      "bufferView": 0,
      "componentType": 5125,
      "count": 2880,
      "type": "SCALAR"
    },
    {
      "bufferView": 2,
      "byteOffset": 13416,
      "componentType": 5126,
      "count": 65532,
      "max": [
        84.49781036376953,
        201.05128479003906,
        -88.67083740234375
      ],
      "min": [
        -58.48614501953125,
        0.11496700346469879,
        -162.2849884033203
      ],
      "type": "VEC3"
    },
    {
      "bufferView": 2,
      "byteOffset": 799800,
      "componentType": 5126,
      "count": 65532,
      "max": [
        0.999958336353302,
        0.999997615814209,
        0.9999988675117493
      ],
      "min": [
        -0.9999344944953918,
        -0.9999187588691711,
        -0.9999949932098389
      ],
      "type": "VEC3"
    },
    {
      "bufferView": 3,
      "byteOffset": 8944,
      "componentType": 5126,
      "count": 65532,
      "max": [
        0.9999951124191284,
        0.9997153282165527,
        0.9999960064888,
        1.0
      ],
      "min": [
        -0.999998152256012,
        -0.9760660529136658,
        -0.9999664425849915,
        -1.0
      ],
      "type": "VEC4"
    },
    {
      "bufferView": 1,
      "byteOffset": 4472,
      "componentType": 5126,
      "count": 65532,
      "max": [
        0.9980469942092896,
        0.993511974811554
      ],
      "min": [
        0.006736000068485737,
        0.0086260000243783
      ],
      "type": "VEC2"
    },
    {
      "bufferView": 0,
      "byteOffset": 11520,
      "componentType": 5125,
      "count": 317406,
      "type": "SCALAR"
    },
    {
      "bufferView": 2,
      "byteOffset": 1586184,
      "componentType": 5126,
      "count": 65532,
      "max": [
        84.5072250366211,
        204.4513702392578,
        -88.5531234741211
      ],
      "min": [
        -58.69352722167969,
        0.1827699989080429,
        -162.19451904296875
      ],
      "type": "VEC3"
    },
    {
      "bufferView": 2,
      "byteOffset": 2372568,
      "componentType": 5126,
      "count": 65532,
      "max": [
        0.9999591112136841,
        0.9999993443489075,
        0.9999988675117493
      ],
      "min": [
        -0.9998354911804199,
        -0.9995417594909668,
        -0.9999863505363464
      ],
      "type": "VEC3"
    },
    {
      "bufferView": 3,
      "byteOffset": 1057456,
      "componentType": 5126,
      "count": 65532,
      "max": [
        0.9999948740005493,
        0.9999994039535522,
        0.9998665452003479,
        1.0
      ],
      "min": [
        -0.9999972581863403,
        -0.9999484419822693,
        -0.9999842047691345,
        -1.0
      ],
      "type": "VEC4"
    },
    {
      "bufferView": 1,
      "byteOffset": 528728,
      "componentType": 5126,
      "count": 65532,
      "max": [
        0.9895070195198059,
        0.9949349761009216
      ],
      "min": [
        0.002268000040203333,
        0.010091000236570835
      ],
      "type": "VEC2"
    },
    {
      "bufferView": 0,
      "byteOffset": 1281144,
      "componentType": 5125,
      "count": 305304,
      "type": "SCALAR"
    },
    {
      "bufferView": 2,
      "byteOffset": 3158952,
      "componentType": 5126,
      "count": 11724,
      "max": [
        83.9208755493164,
        204.4532012939453,
        -104.15875244140625
      ],
      "min": [
        -2.95904803276062,
        71.89599609375,
        -147.98257446289063
      ],
      "type": "VEC3"
    },
    {
      "bufferView": 2,
      "byteOffset": 3299640,
      "componentType": 5126,
      "count": 11724,
      "max": [
        0.9989383816719055,
        0.9998497366905212,
        0.9995682239532471
      ],
      "min": [
        -0.9988592267036438,
        -0.9391989707946777,
        -0.9999913573265076
      ],
      "type": "VEC3"
    },
    {
      "bufferView": 3,
      "byteOffset": 2105968,
      "componentType": 5126,
      "count": 11724,
      "max": [
        0.9999890327453613,
        0.9384905099868774,
        0.9837700724601746,
        1.0
      ],
      "min": [
        -0.9998394250869751,
        -0.8138222098350525,
        -0.8675974607467651,
        1.0
      ],
      "type": "VEC4"
    },
    {
      "bufferView": 1,
      "byteOffset": 1052984,
      "componentType": 5126,
      "count": 11724,
      "max": [
        0.9661070108413696,
        0.5320309996604919
      ],
      "min": [
        0.0019529999699443579,
        0.0019529999699443579
      ],
      "type": "VEC2"
    },
    {
      "bufferView": 0,
      "byteOffset": 2502360,
      "componentType": 5125,
      "count": 53610,
      "type": "SCALAR"
    }
  ],
  "asset": {
    "extras": {
      "author": "pepetrincado (https://sketchfab.com/pipiripipi)",
      "license": "CC-BY-4.0 (http://creativecommons.org/licenses/by/4.0/)",
      "source": "https://sketchfab.com/3d-models/christus-statue-color-ae4a6795ac8a41cd9e3102e45292216f",
      "title": "Christus statue color"
    },
    "generator": "Sketchfab-10.46.0",
    "version": "2.0"
  },
  "bufferViews": [
    {
      "buffer": 0,
      "byteLength": 2716800,
      "name": "floatBufferViews",
      "target": 34963
    },
    {
      "buffer": 0,
      "byteLength": 1146776,
      "byteOffset": 2716800,
      "byteStride": 8,
      "name": "floatBufferViews",
      "target": 34962
    },
    {
      "buffer": 0,
      "byteLength": 3440328,
      "byteOffset": 3863576,
      "byteStride": 12,
      "name": "floatBufferViews",
      "target": 34962
    },
    {
      "buffer": 0,
      "byteLength": 2293552,
      "byteOffset": 7303904,
      "byteStride": 16,
      "name": "floatBufferViews",
      "target": 34962
    }
  ],
  "buffers": [
    {
      "byteLength": 9597456,
      "uri": "scene.bin"
    }
  ],
  "images": [
    {
      "uri": "textures/PM3D_Christus2_2_baseColor.jpeg"
    },
    {
      "uri": "textures/PM3D_Christus2_2_metallicRoughness.png"
    },
    {
      "uri": "textures/PM3D_Christus2_2_emissive.jpeg"
    },
    {
      "uri": "textures/PM3D_Christus2_2_normal.png"
    },
    {
      "uri": "textures/PM3D_Cube3D1_baseColor.jpeg"
    },
    {
      "uri": "textures/PM3D_Cube3D1_metallicRoughness.png"
    },
    {
      "uri": "textures/PM3D_Cube3D1_normal.png"
    }
  ],
  "materials": [
    {
      "doubleSided": true,
      "emissiveFactor": [
        1.0,
        1.0,
        1.0
      ],
      "emissiveTexture": {
        "index": 2
      },
      "name": "PM3D_Christus2_2",
      "normalTexture": {
        "index": 3
      },
      "occlusionTexture": {
        "index": 1
      },
      "pbrMetallicRoughness": {
        "baseColorTexture": {
          "index": 0
        },
        "metallicRoughnessTexture": {
          "index": 1
        }
      }
    },
    {
      "doubleSided": true,
      "name": "PM3D_Cube3D1",
      "normalTexture": {
        "index": 6
      },
      "occlusionTexture": {
        "index": 5
      },
      "pbrMetallicRoughness": {
        "baseColorTexture": {
          "index": 4
        },
        "metallicRoughnessTexture": {
          "index": 5
        }
      }
    }
  ],
  "meshes": [
    {
      "name": "defaultMaterial",
      "primitives": [
        {
          "attributes": {
            "NORMAL": 1,
            "POSITION": 0,
            "TANGENT": 2,
            "TEXCOORD_0": 3
          },
          "indices": 4,
          "material": 1,
          "mode": 4
        }
      ]
    },
    {
      "name": "defaultMaterial",
      "primitives": [
        {
          "attributes": {
            "NORMAL": 6,
            "POSITION": 5,
            "TANGENT": 7,
            "TEXCOORD_0": 8
          },
          "indices": 9,
          "material": 0,
          "mode": 4
        }
      ]
    },
    {
      "name": "defaultMaterial",
      "primitives": [
        {
          "attributes": {
            "NORMAL": 11,
            "POSITION": 10,
            "TANGENT": 12,
            "TEXCOORD_0": 13
          },
          "indices": 14,
          "material": 0,
          "mode": 4
        }
      ]
    },
    {
      "name": "defaultMaterial",
      "primitives": [
        {
          "attributes": {
            "NORMAL": 16,
            "POSITION": 15,
            "TANGENT": 17,
            "TEXCOORD_0": 18
          },
          "indices": 19,
          "material": 0,
          "mode": 4
        }
      ]
    }
  ],
  "nodes": [
    {
      "children": [
        1
      ],
      "matrix": [
        1.0,
        0.0,
        0.0,
        0.0,
        0.0,
        2.220446049250313e-16,
        -1.0,
        0.0,
        0.0,
        1.0,
        2.220446049250313e-16,
        0.0,
        0.0,
        0.0,
        0.0,
        1.0
      ],
      "name": "Sketchfab_model"
    },
    {
      "children": [
        2,
        4
      ],
      "matrix": [
        1.0,
        0.0,
        0.0,
        0.0,
        0.0,
        -4.371139006309477e-08,
        0.999999999999999,
        0.0,
        0.0,
        -0.999999999999999,
        -4.371139006309477e-08,
        0.0,
        0.0,
        0.0,
        0.0,
        1.0
      ],
      "name": "Collada visual scene group"
    },
    {
      "children": [
        3
      ],
      "name": "PM3D_Cube3D1"
    },
    {
      "mesh": 0,
      "name": "defaultMaterial"
    },
    {
      "children": [
        5,
        6,
        7
      ],
      "name": "PM3D_Christus2_2"
    },
    {
      "mesh": 1,
      "name": "defaultMaterial"
    },
    {
      "mesh": 2,
      "name": "defaultMaterial"
    },
    {
      "mesh": 3,
      "name": "defaultMaterial"
    }
  ],
  "samplers": [
    {
      "magFilter": 9729,
      "minFilter": 9987,
      "wrapS": 10497,
      "wrapT": 10497
    }
  ],
  "scene": 0,
  "scenes": [
    {
      "name": "Sketchfab_Scene",
      "nodes": [
        0
      ]
    }
  ],
  "textures": [
    {
      "sampler": 0,
      "source": 0
    },
    {
      "sampler": 0,
      "source": 1
    },
    {
      "sampler": 0,
      "source": 2
    },
    {
      "sampler": 0,
      "source": 3
    },
    {
      "sampler": 0,
      "source": 4
    },
    {
      "sampler": 0,
      "source": 5
    },
    {
      "sampler": 0,
      "source": 6
    }
  ]
}
